<?xml version="1.0" encoding="UTF-8"?>
<svg width="427px" height="393px" viewBox="0 0 427 393" version="1.1" xmlns="http://www.w3.org/2000/svg" xmlns:xlink="http://www.w3.org/1999/xlink">
    <!-- Generator: Sketch 39.1 (31720) - http://www.bohemiancoding.com/sketch -->
    <title>Group</title>
    <desc>Created with Sketch.</desc>
    <defs></defs>
    <g id="Page-1" stroke="none" stroke-width="1" fill="none" fill-rule="evenodd">
        <g id="farm3" transform="translate(213.500000, 196.500000) scale(-1, 1) translate(-213.500000, -196.500000) " fill="#FFFFFF">
            <g id="Page-1">
                <g id="farm2">
                    <g id="Group">
                        <path d="M8.673,136.533 C51.015,136.533 85.473,170.991 85.473,213.333 C85.473,218.043 89.296,221.866 94.006,221.866 C98.716,221.866 102.539,218.043 102.539,213.333 C102.539,161.578 60.427,119.466 8.672,119.466 C3.962,119.466 0.139,123.289 0.139,127.999 C0.139,132.709 3.963,136.533 8.673,136.533 L8.673,136.533 L8.673,136.533 Z" id="Shape"></path>
                        <path d="M8.673,68.267 C88.665,68.267 153.74,133.342 153.74,213.334 C153.74,250.975 184.366,281.601 222.007,281.601 C244.091,281.601 264.913,270.84 277.696,252.809 C280.427,248.969 279.522,243.644 275.682,240.914 C271.833,238.183 266.509,239.088 263.787,242.936 C254.187,256.461 238.571,264.534 222.008,264.534 C193.771,264.534 170.808,241.571 170.808,213.334 C170.808,123.93 98.078,51.201 8.675,51.201 C3.965,51.201 0.142,55.024 0.142,59.734 C0.142,64.444 3.963,68.267 8.673,68.267 L8.673,68.267 L8.673,68.267 Z" id="Shape"></path>
                        <path d="M8.673,102.4 C69.848,102.4 119.606,152.158 119.606,213.333 C119.606,218.043 123.429,221.866 128.139,221.866 C132.849,221.866 136.672,218.043 136.672,213.333 C136.672,142.754 79.251,85.333 8.672,85.333 C3.962,85.333 0.139,89.156 0.139,93.866 C0.14,98.577 3.963,102.4 8.673,102.4 L8.673,102.4 L8.673,102.4 Z" id="Shape"></path>
                        <path d="M230.54,392.098 C320.669,387.609 392.673,313.088 392.673,221.867 L392.673,186.274 C402.606,182.75 409.74,173.261 409.74,162.133 C409.74,154.009 402.538,140.859 396.556,131.336 L422.088,118.562 C424.981,117.12 426.807,114.167 426.807,110.933 C426.807,107.699 424.981,104.746 422.088,103.296 L392.435,88.474 C391.906,82.594 390.506,76.971 388.399,71.706 L411.106,58.599 C415.193,56.235 416.584,51.013 414.229,46.934 C411.874,42.855 406.643,41.447 402.573,43.811 L379.823,56.952 C376.896,53.257 373.568,49.903 369.865,46.985 L382.998,24.235 C385.353,20.148 383.954,14.934 379.875,12.578 C375.779,10.214 370.574,11.614 368.218,15.701 L355.109,38.4 C350.791,36.676 346.217,35.49 341.473,34.807 L341.473,8.533 C341.473,3.823 337.65,0 332.94,0 C328.23,0 324.407,3.823 324.407,8.533 L324.407,34.816 C319.671,35.499 315.106,36.71 310.788,38.434 L297.664,15.701 C295.3,11.614 290.104,10.214 286.008,12.578 C281.929,14.933 280.53,20.147 282.885,24.235 L296.026,47.002 C292.323,49.92 288.986,53.257 286.068,56.96 L263.31,43.819 C259.231,41.447 254,42.855 251.653,46.942 C249.298,51.021 250.689,56.243 254.776,58.598 L277.509,71.722 C274.761,78.583 273.208,86.041 273.208,93.866 L273.208,204.8 L196.408,204.8 C191.698,204.8 187.875,208.623 187.875,213.333 C187.875,218.043 191.698,221.866 196.408,221.866 L281.741,221.866 C286.451,221.866 290.274,218.043 290.274,213.333 L290.274,93.867 C290.274,70.341 309.414,51.2 332.941,51.2 C356.467,51.2 375.608,70.34 375.608,93.867 C375.608,97.101 377.434,100.054 380.327,101.504 L399.194,110.933 L380.327,120.362 C378.117,121.471 376.496,123.485 375.873,125.875 C375.267,128.273 375.719,130.816 377.119,132.847 C385.302,144.7 392.573,158.387 392.675,162.133 C392.675,166.835 388.844,170.666 384.142,170.666 C379.432,170.666 375.609,174.489 375.609,179.199 L375.609,221.866 C375.609,306.559 306.702,375.466 222.009,375.466 C137.316,375.466 68.409,306.559 68.409,221.866 L68.409,213.333 C68.409,180.394 41.614,153.6 8.676,153.6 C3.966,153.6 0.143,157.423 0.143,162.133 C0.143,166.843 3.966,170.666 8.676,170.666 C32.202,170.666 51.343,189.806 51.343,213.333 L51.343,221.866 C51.343,313.087 123.347,387.609 213.476,392.097 L230.54,392.098 L230.54,392.098 Z" id="Shape"></path>
                        <path d="M358.796,93.867 C358.796,89.157 354.982,85.334 350.263,85.334 L350.178,85.334 C345.468,85.334 341.687,89.157 341.687,93.867 C341.687,98.577 345.553,102.4 350.263,102.4 C354.981,102.4 358.796,98.577 358.796,93.867 L358.796,93.867 L358.796,93.867 Z" id="Shape"></path>
                    </g>
                </g>
            </g>
        </g>
    </g>
</svg>