<svg id="Calque_1" data-name="Calque 1" xmlns="http://www.w3.org/2000/svg" viewBox="0 0 85.67 85.67"><defs><style>.cls-1{fill:#f68e56;}.cls-2{fill:#fa955f;}.cls-2,.cls-3,.cls-4{fill-rule:evenodd;}.cls-3{fill:#d37044;}.cls-4{fill:#ec8751;}</style></defs><title>item2</title><g id="Calque_3" data-name="Calque 3"><rect class="cls-1" width="85.67" height="85.67" rx="10" ry="10"/></g><path class="cls-2" d="M302.59,272.08a8.6,8.6,0,0,1,8.6,8.6,22.59,22.59,0,0,1-22.59,22.59,8.6,8.6,0,0,1-8.6-8.6,8.6,8.6,0,0,1-8.6,8.6,22.59,22.59,0,0,1-22.59-22.59,8.6,8.6,0,0,1,8.6-8.6" transform="translate(-237.17 -230.25)"/><path class="cls-3" d="M258.12,272.08a8.31,8.31,0,0,1-8.31-8.31,21.83,21.83,0,0,1,21.83-21.83,8.31,8.31,0,0,1,8.31,8.31,8.31,8.31,0,0,1,8.31-8.31,21.83,21.83,0,0,1,21.83,21.83,8.31,8.31,0,0,1-8.31,8.31m0,0" transform="translate(-237.17 -230.25)"/><path class="cls-4" d="M301.78,271.93a8.31,8.31,0,0,1,8.31,8.31,21.83,21.83,0,0,1-21.83,21.83,8.31,8.31,0,0,1-8.31-8.31,8.31,8.31,0,0,1-8.31,8.31,21.83,21.83,0,0,1-21.83-21.83,8.31,8.31,0,0,1,8.31-8.31m0,0" transform="translate(-237.17 -230.25)"/><path class="cls-4" d="M258.93,272.08a8,8,0,0,1-8-8A21.07,21.07,0,0,1,272,243a8,8,0,0,1,8,8,8,8,0,0,1,8-8,21.07,21.07,0,0,1,21.07,21.07,8,8,0,0,1-8,8m0,0" transform="translate(-237.17 -230.25)"/></svg>