<?xml version="1.0" encoding="UTF-8"?>
<svg width="512px" height="512px" viewBox="0 0 512 512" version="1.1" xmlns="http://www.w3.org/2000/svg" xmlns:xlink="http://www.w3.org/1999/xlink">
    <!-- Generator: Sketch 39.1 (31720) - http://www.bohemiancoding.com/sketch -->
    <title>Group</title>
    <desc>Created with Sketch.</desc>
    <defs></defs>
    <g id="Page-1" stroke="none" stroke-width="1" fill="none" fill-rule="evenodd">
        <g id="numbers" fill="#FFFFFF">
            <g id="Group">
                <path d="M341.338,298.667 L341.338,42.667 C341.338,19.149 322.198,0 298.671,0 L42.671,0 C19.145,0 0.005,19.149 0.005,42.667 L0.005,298.667 C0.005,322.193 19.145,341.334 42.672,341.334 L298.672,341.334 C322.198,341.333 341.338,322.193 341.338,298.667 L341.338,298.667 Z M17.071,298.667 L17.071,42.667 C17.071,28.553 28.557,17.067 42.671,17.067 L298.671,17.067 C312.785,17.067 324.271,28.553 324.271,42.667 L324.271,298.667 C324.271,312.79 312.785,324.267 298.671,324.267 L42.671,324.267 C28.557,324.267 17.071,312.789 17.071,298.667 L17.071,298.667 Z" id="Shape"></path>
                <text id="1" font-family="Arial-ItalicMT, Arial" font-size="250" font-style="italic" font-weight="normal">
                    <tspan x="83.480957" y="260">1</tspan>
                </text>
                <path d="M483.921,188.672 L361.195,144 C356.775,142.404 351.868,144.674 350.264,149.103 C348.643,153.532 350.93,158.43 355.358,160.043 L478.084,204.706 C491.345,209.536 498.214,224.256 493.384,237.517 L405.824,478.08 C401.003,491.349 386.274,498.21 373.013,493.389 L132.45,405.828 C119.198,400.998 112.328,386.278 117.15,373.009 L121.144,362.035 C122.765,357.606 120.47,352.708 116.05,351.104 C111.587,349.5 106.723,351.778 105.11,356.207 L101.116,367.172 C93.069,389.282 104.512,413.815 126.622,421.862 L367.177,509.423 C371.981,511.164 376.888,512 381.718,512 C399.152,511.992 415.561,501.222 421.859,483.917 L509.42,243.354 C517.466,221.244 506.031,196.719 483.921,188.672 L483.921,188.672 Z" id="Shape"></path>
            </g>
        </g>
    </g>
</svg>