<svg id="Calque_1" data-name="Calque 1" xmlns="http://www.w3.org/2000/svg" viewBox="0 0 67.96 67.97"><defs><style>.cls-1{fill:#f68e56;}.cls-2{fill:#fcfcfc;}.cls-3{fill:#fefefe;}</style></defs><title>smile</title><path class="cls-1" d="M300.64,452.09a34,34,0,1,1,34.15-33.81A34,34,0,0,1,300.64,452.09Z" transform="translate(-266.83 -384.12)"/><path class="cls-2" d="M301,438.28c-7.14.24-12.71-3.26-17.91-7.6-0.95-.79-1.63-1.94-0.79-3s1.81,0,2.6.42c10.61,5.92,21.19,5.87,31.79,0,0.78-.44,1.77-1.52,2.59-0.36s0.1,2.25-.86,3C313.39,434.93,308,438.39,301,438.28Z" transform="translate(-266.83 -384.12)"/><path class="cls-3" d="M291.79,407.75c-0.35,2.62-1.53,4.17-3.85,4.19a3.84,3.84,0,1,1,0-7.68C290.32,404.31,291.28,406,291.79,407.75Z" transform="translate(-266.83 -384.12)"/><path class="cls-3" d="M315.72,407.73c-0.09,2.19-1,3.91-3.35,4.18-2.53.3-4.24-1-4.39-3.6a3.56,3.56,0,0,1,3.51-4C313.78,404.12,315.19,405.42,315.72,407.73Z" transform="translate(-266.83 -384.12)"/></svg>